<?xml version="1.0" encoding="UTF-8"?>
<svg xmlns="http://www.w3.org/2000/svg" xmlns:xlink="http://www.w3.org/1999/xlink" viewBox="0 0 150 150" width="150px" height="150px">
<g id="surface80822642">
<path style=" stroke:none;fill-rule:nonzero;fill:rgb(79.607844%,41.960785%,41.960785%);fill-opacity:1;" d="M 138.410156 19.65625 C 136.160156 17.746094 132.628906 17.476562 128.972656 18.941406 L 128.96875 18.941406 C 125.125 20.484375 20.183594 65.496094 15.910156 67.335938 C 15.136719 67.605469 8.347656 70.136719 9.046875 75.777344 C 9.671875 80.863281 15.125 82.96875 15.792969 83.210938 L 42.472656 92.347656 C 44.242188 98.238281 50.765625 119.976562 52.210938 124.621094 C 53.109375 127.515625 54.574219 131.320312 57.148438 132.101562 C 59.402344 132.972656 61.648438 132.175781 63.097656 131.035156 L 79.410156 115.90625 L 105.742188 136.441406 L 106.367188 136.816406 C 108.15625 137.609375 109.867188 138.007812 111.503906 138.007812 C 112.765625 138.007812 113.980469 137.769531 115.136719 137.296875 C 119.082031 135.675781 120.660156 131.914062 120.824219 131.488281 L 140.492188 29.257812 C 141.691406 23.800781 140.023438 21.019531 138.410156 19.65625 Z M 66 96 L 57 120 L 48 90 L 117 39 Z M 66 96 "/>
</g>
</svg>
